<?xml version="1.0" encoding="utf-8"?>
<!-- Generator: Adobe Illustrator 16.0.0, SVG Export Plug-In . SVG Version: 6.00 Build 0)  -->
<!DOCTYPE svg PUBLIC "-//W3C//DTD SVG 1.1//EN" "http://www.w3.org/Graphics/SVG/1.1/DTD/svg11.dtd">
<svg version="1.1" id="Layer_1" xmlns="http://www.w3.org/2000/svg" xmlns:xlink="http://www.w3.org/1999/xlink" x="0px" y="0px"
	 width="612px" height="612px" viewBox="0 90 612 612" enable-background="new 0 90 612 612" xml:space="preserve">
<g opacity="0.5">
	<path fill="#002945" stroke="#002945" stroke-miterlimit="10" d="M98.924,331.826c0.678,0.29,1.378,0.43,2.07,0.43
		c2.042,0,3.981-1.196,4.836-3.191c6.312-14.728,20.746-24.241,36.768-24.241c15.854,0,30.227,9.377,36.614,23.891
		c0.028,0.065,0.083,0.103,0.112,0.164c0.033,0.065,0.028,0.131,0.061,0.196c8.747,16.363,25.965,26.525,44.94,26.525
		c0.005,0,0.005,0,0.014,0c18.933,0,36.142-10.224,44.902-26.675c0.028-0.051,0.019-0.103,0.042-0.154
		c0.037-0.065,0.093-0.117,0.122-0.187c6.411-14.434,20.755-23.76,36.548-23.76c15.522,0,29.773,9.107,36.305,23.199
		c0.005,0.014,0.028,0.023,0.033,0.042c0.01,0.019,0.005,0.042,0.014,0.061c8.163,16.686,26.265,27.474,46.108,27.474
		c0.005,0,0.005,0,0.005,0c18.834,0,36.571-10.803,45.178-27.521c0.019-0.033,0.014-0.065,0.028-0.099
		c0.013-0.032,0.046-0.051,0.056-0.079c6.56-14.018,20.787-23.073,36.254-23.073c15.526,0,29.772,9.107,36.306,23.199
		c0.883,1.92,2.789,3.047,4.77,3.047c0.738,0,1.49-0.155,2.211-0.486c2.635-1.22,3.784-4.345,2.561-6.985
		c-8.238-17.797-26.231-29.296-45.847-29.296c-19.442,0-37.319,11.34-45.65,28.904c-0.01,0.018-0.038,0.032-0.047,0.051
		c-6.822,13.256-20.877,21.815-35.818,21.815c0,0,0,0-0.005,0c-15.863,0-30.245-8.466-36.656-21.577
		c-0.009-0.019-0.028-0.028-0.032-0.042c-8.274-17.713-26.218-29.152-45.771-29.152c-19.792,0-37.763,11.616-45.949,29.614
		c-0.014,0.023-0.038,0.033-0.052,0.056c-6.929,13.017-20.577,21.101-35.618,21.101h-0.005h-0.005
		c-15.087,0-28.75-8.032-35.661-20.961c-0.014-0.023-0.032-0.032-0.046-0.056c-8.158-18.078-26.157-29.754-46.02-29.754
		c-20.236,0-38.459,12.018-46.435,30.614C95.018,327.588,96.251,330.682,98.924,331.826z"/>
	<path fill="#002945" stroke="#002945" stroke-miterlimit="10" d="M469.928,369.164c-19.442,0-37.319,11.344-45.65,28.903
		c-0.01,0.024-0.037,0.033-0.046,0.052c-6.822,13.256-20.877,21.82-35.819,21.82c0,0,0,0-0.005,0
		c-15.862,0-30.245-8.471-36.655-21.577c-0.01-0.014-0.028-0.023-0.032-0.047c-8.275-17.713-26.218-29.146-45.772-29.146
		c-19.797,0-37.768,11.62-45.959,29.619c-0.009,0.018-0.028,0.037-0.042,0.056c-6.93,13.018-20.578,21.101-35.619,21.101h-0.005
		h-0.004c-15.087,0-28.75-8.032-35.66-20.961c-0.014-0.023-0.033-0.032-0.047-0.056c-8.158-18.083-26.156-29.754-46.019-29.754
		c-20.232,0-38.459,12.008-46.435,30.615c-1.145,2.663,0.093,5.761,2.761,6.91c0.678,0.29,1.378,0.43,2.07,0.43
		c2.042,0,3.981-1.201,4.835-3.191c6.313-14.723,20.746-24.241,36.768-24.241c15.849,0,30.222,9.377,36.614,23.886
		c0.028,0.064,0.084,0.103,0.112,0.163c0.033,0.065,0.028,0.131,0.061,0.196c8.747,16.363,25.96,26.525,44.94,26.525
		c0.004,0,0.004,0,0.014,0c18.933,0,36.141-10.223,44.902-26.68c0.028-0.042,0.019-0.098,0.042-0.141
		c0.033-0.074,0.093-0.116,0.122-0.191c6.411-14.438,20.76-23.759,36.548-23.759c15.522,0,29.773,9.102,36.305,23.199
		c0.004,0.019,0.027,0.023,0.032,0.042c0.01,0.023,0.005,0.043,0.015,0.061c8.157,16.686,26.264,27.475,46.107,27.475
		c0.005,0,0.005,0,0.005,0c18.834,0,36.571-10.803,45.178-27.525c0.019-0.028,0.015-0.062,0.028-0.098
		c0.014-0.033,0.046-0.048,0.056-0.08c6.556-14.022,20.788-23.073,36.254-23.073c15.526,0,29.772,9.102,36.306,23.199
		c0.883,1.916,2.789,3.047,4.771,3.047c0.737,0,1.49-0.159,2.21-0.486c2.635-1.224,3.784-4.351,2.56-6.985
		C507.536,380.663,489.538,369.164,469.928,369.164z"/>
</g>
</svg>
